<?xml version="1.0" encoding="UTF-8" standalone="no"?>
<!-- Created with Inkscape (http://www.inkscape.org/) -->

<svg
   width="89.561684mm"
   height="40.249947mm"
   viewBox="0 0 89.561684 40.249947"
   version="1.1"
   id="svg8"
   inkscape:version="1.4 (e7c3feb1, 2024-10-09)"
   sodipodi:docname="cover-example2.svg"
   xmlns:inkscape="http://www.inkscape.org/namespaces/inkscape"
   xmlns:sodipodi="http://sodipodi.sourceforge.net/DTD/sodipodi-0.dtd"
   xmlns="http://www.w3.org/2000/svg"
   xmlns:svg="http://www.w3.org/2000/svg"
   xmlns:rdf="http://www.w3.org/1999/02/22-rdf-syntax-ns#"
   xmlns:cc="http://creativecommons.org/ns#"
   xmlns:dc="http://purl.org/dc/elements/1.1/">
  <defs
     id="defs2">
    <inkscape:path-effect
       effect="spiro"
       id="path-effect2"
       is_visible="true"
       lpeversion="1" />
    <inkscape:path-effect
       effect="spiro"
       id="path-effect1"
       is_visible="true"
       lpeversion="1" />
    <inkscape:path-effect
       effect="spiro"
       id="path-effect2-4"
       is_visible="true"
       lpeversion="1" />
  </defs>
  <sodipodi:namedview
     id="base"
     pagecolor="#ffffff"
     bordercolor="#666666"
     borderopacity="1.0"
     inkscape:pageopacity="0.0"
     inkscape:pageshadow="2"
     inkscape:zoom="3.6410815"
     inkscape:cx="146.79704"
     inkscape:cy="74.840401"
     inkscape:document-units="mm"
     inkscape:current-layer="layer1"
     showgrid="false"
     showborder="true"
     width="200mm"
     showguides="true"
     inkscape:guide-bbox="true"
     inkscape:window-width="1800"
     inkscape:window-height="1096"
     inkscape:window-x="3"
     inkscape:window-y="44"
     inkscape:window-maximized="0"
     inkscape:showpageshadow="2"
     inkscape:pagecheckerboard="0"
     inkscape:deskcolor="#d1d1d1">
    <inkscape:grid
       type="xygrid"
       id="grid815"
       units="mm"
       spacingx="10"
       spacingy="10"
       empspacing="4"
       dotted="false"
       originx="-10.155253"
       originy="-9.9057974" />
  </sodipodi:namedview>
  <metadata
     id="metadata5">
    <rdf:RDF>
      <cc:Work
         rdf:about="">
        <dc:format>image/svg+xml</dc:format>
        <dc:type
           rdf:resource="http://purl.org/dc/dcmitype/StillImage" />
      </cc:Work>
    </rdf:RDF>
  </metadata>
  <g
     inkscape:label="Layer 1"
     inkscape:groupmode="layer"
     id="layer1"
     transform="translate(-10.155253,-186.9058)">
    <path
       style="fill:#000000;stroke:#000000;stroke-width:0.561001;stroke-linecap:round"
       d="m 52.059091,222.22508 c 0.844631,1.5038 1.009646,3.37289 0.441557,5.00141 -0.56809,1.62852 -1.859849,2.98943 -3.456561,3.6416 -0.789437,0.32244 -1.636207,0.47583 -2.450732,0.72827 -0.814525,0.25245 -1.626843,0.62624 -2.172277,1.28174 -0.389897,0.46858 -0.617643,1.05122 -0.77791,1.63935 -0.160268,0.58814 -0.259457,1.19186 -0.428093,1.77765 -0.41232,1.43226 -1.229821,2.72501 -1.613633,4.16517 -0.191906,0.72008 -0.271655,1.48158 -0.126552,2.21254 0.145102,0.73095 0.530996,1.42986 1.137184,1.86331 0.433359,0.30987 0.958509,0.47274 1.487091,0.53924 0.528582,0.0665 1.064171,0.0412 1.59559,0.004 0.531418,-0.0376 1.063448,-0.0875 1.595902,-0.0698 0.532454,0.0177 1.069732,0.10552 1.552428,0.33097 0.516914,0.24143 0.954347,0.6341 1.297675,1.08975 0.343328,0.45565 0.596502,0.97358 0.801237,1.5061 0.409468,1.06502 0.633223,2.19981 1.117094,3.23316 0.572332,1.22227 1.50554,2.27073 2.645736,2.99285 1.140197,0.72212 2.482863,1.11714 3.832272,1.14169 1.34941,0.0245 2.701938,-0.3198 3.882274,-0.97426 1.180335,-0.65446 2.186557,-1.61623 2.905741,-2.75828 1.456502,-2.3129 1.673263,-5.18311 1.633312,-7.91611 -0.03995,-2.733 -0.290645,-5.51334 0.376693,-8.16392 0.61201,-2.43082 1.964842,-4.61405 2.698842,-7.01086 0.367,-1.19841 0.576998,-2.4618 0.442498,-3.7079 -0.134501,-1.2461 -0.635249,-2.47702 -1.533338,-3.35126 -1.056916,-1.02885 -2.565825,-1.48012 -4.038532,-1.56226 -1.472708,-0.0821 -2.940637,0.16732 -4.403483,0.35626 -0.86878,0.11221 -1.760664,0.2022 -2.613004,0 -0.688591,-0.16335 -1.317104,-0.50949 -1.965459,-0.79318 -0.648354,-0.28369 -1.353593,-0.51031 -2.054549,-0.41283 -0.70441,0.098 -1.352745,0.53989 -1.701413,1.15974 -0.348668,0.61986 -0.389666,1.40341 -0.10759,2.05627 z"
       id="path1"
       inkscape:path-effect="#path-effect2"
       inkscape:original-d="m 52.059091,222.22508 c 0.405122,1.54319 -0.683038,6.31105 -3.015004,8.64301 -1.15256,1.15256 -3.556445,0.94344 -4.623009,2.01001 -0.746588,0.74658 -0.88677,2.4593 -1.206003,3.417 -0.636098,1.9083 -1.363945,6.71913 -0.603001,8.24102 1.323483,2.64696 4.926044,-0.50097 6.231011,0.804 1.300351,1.30035 1.814516,4.42752 3.216006,5.82901 0.772734,0.77273 12.614544,1.05348 13.266023,0.402 3.245593,-3.24559 0.09886,-12.25774 2.010005,-16.08003 0.834874,-1.66975 2.554054,-12.17792 1.608002,-14.07002 -0.809384,-1.61877 -6.598256,-1.206 -8.442015,-1.206 -0.616672,0 -2.050505,0.28124 -2.613004,0 -0.998268,-0.49914 -2.517441,-1.95729 -4.020008,-1.20601 -0.927891,0.46395 -1.397767,2.25646 -1.809003,3.21601 z"
       transform="translate(-30.732192,-30.163102)" />
    <rect
       style="fill:none;stroke:#002cb4;stroke-width:0.258047;stroke-linecap:round;stroke-dasharray:none;stroke-opacity:1"
       id="rect2"
       width="19.741196"
       height="19.74214"
       x="10.284277"
       y="187.03511" />
    <rect
       style="fill:none;stroke:#002cb4;stroke-width:0.258047;stroke-linecap:round;stroke-dasharray:none;stroke-opacity:1"
       id="rect2-2"
       width="19.741196"
       height="19.74214"
       x="30.283731"
       y="187.03482" />
    <rect
       style="fill:none;stroke:#002cb4;stroke-width:0.258047;stroke-linecap:round;stroke-dasharray:none;stroke-opacity:1"
       id="rect2-8"
       width="19.741196"
       height="19.74214"
       x="10.284914"
       y="207.0347" />
    <rect
       style="fill:none;stroke:#002cb4;stroke-width:0.258047;stroke-linecap:round;stroke-dasharray:none;stroke-opacity:1"
       id="rect2-2-1"
       width="19.741196"
       height="19.74214"
       x="30.284369"
       y="207.03441" />
    <path
       style="fill:#000000;stroke:#000000;stroke-width:0.561001;stroke-linecap:round"
       d="m 52.059091,222.22508 c 0.844631,1.5038 1.009646,3.37289 0.441557,5.00141 -0.56809,1.62852 -1.859849,2.98943 -3.456561,3.6416 -0.789437,0.32244 -1.636207,0.47583 -2.450732,0.72827 -0.814525,0.25245 -1.626843,0.62624 -2.172277,1.28174 -0.389897,0.46858 -0.617643,1.05122 -0.77791,1.63935 -0.160268,0.58814 -0.259457,1.19186 -0.428093,1.77765 -0.41232,1.43226 -1.229821,2.72501 -1.613633,4.16517 -0.191906,0.72008 -0.271655,1.48158 -0.126552,2.21254 0.145102,0.73095 0.530996,1.42986 1.137184,1.86331 0.433359,0.30987 0.958509,0.47274 1.487091,0.53924 0.528582,0.0665 1.064171,0.0412 1.59559,0.004 0.531418,-0.0376 1.063448,-0.0875 1.595902,-0.0698 0.532454,0.0177 1.069732,0.10552 1.552428,0.33097 0.516914,0.24143 0.954347,0.6341 1.297675,1.08975 0.343328,0.45565 0.596502,0.97358 0.801237,1.5061 0.409468,1.06502 0.633223,2.19981 1.117094,3.23316 0.572332,1.22227 1.50554,2.27073 2.645736,2.99285 1.140197,0.72212 2.482863,1.11714 3.832272,1.14169 1.34941,0.0245 2.701938,-0.3198 3.882274,-0.97426 1.180335,-0.65446 2.186557,-1.61623 2.905741,-2.75828 1.456502,-2.3129 1.673263,-5.18311 1.633312,-7.91611 -0.03995,-2.733 -0.290645,-5.51334 0.376693,-8.16392 0.61201,-2.43082 1.964842,-4.61405 2.698842,-7.01086 0.367,-1.19841 0.576998,-2.4618 0.442498,-3.7079 -0.134501,-1.2461 -0.635249,-2.47702 -1.533338,-3.35126 -1.056916,-1.02885 -2.565825,-1.48012 -4.038532,-1.56226 -1.472708,-0.0821 -2.940637,0.16732 -4.403483,0.35626 -0.86878,0.11221 -1.760664,0.2022 -2.613004,0 -0.688591,-0.16335 -1.317104,-0.50949 -1.965459,-0.79318 -0.648354,-0.28369 -1.353593,-0.51031 -2.054549,-0.41283 -0.70441,0.098 -1.352745,0.53989 -1.701413,1.15974 -0.348668,0.61986 -0.389666,1.40341 -0.10759,2.05627 z"
       id="path1-7"
       inkscape:path-effect="#path-effect2-4"
       inkscape:original-d="m 52.059091,222.22508 c 0.405122,1.54319 -0.683038,6.31105 -3.015004,8.64301 -1.15256,1.15256 -3.556445,0.94344 -4.623009,2.01001 -0.746588,0.74658 -0.88677,2.4593 -1.206003,3.417 -0.636098,1.9083 -1.363945,6.71913 -0.603001,8.24102 1.323483,2.64696 4.926044,-0.50097 6.231011,0.804 1.300351,1.30035 1.814516,4.42752 3.216006,5.82901 0.772734,0.77273 12.614544,1.05348 13.266023,0.402 3.245593,-3.24559 0.09886,-12.25774 2.010005,-16.08003 0.834874,-1.66975 2.554054,-12.17792 1.608002,-14.07002 -0.809384,-1.61877 -6.598256,-1.206 -8.442015,-1.206 -0.616672,0 -2.050505,0.28124 -2.613004,0 -0.998268,-0.49914 -2.517441,-1.95729 -4.020008,-1.20601 -0.927891,0.46395 -1.397767,2.25646 -1.809003,3.21601 z"
       transform="translate(28.827164,-29.913866)" />
    <rect
       style="fill:none;stroke:#002cb4;stroke-width:0.25404;stroke-linecap:round;stroke-dasharray:none;stroke-opacity:1"
       id="rect3"
       width="9.745491"
       height="9.745491"
       x="79.843636"
       y="187.28291" />
    <rect
       style="fill:none;stroke:#002cb4;stroke-width:0.25404;stroke-linecap:round;stroke-dasharray:none;stroke-opacity:1"
       id="rect3-7"
       width="9.745491"
       height="9.745491"
       x="89.843086"
       y="187.28337" />
    <rect
       style="fill:none;stroke:#002cb4;stroke-width:0.25404;stroke-linecap:round;stroke-dasharray:none;stroke-opacity:1"
       id="rect3-8"
       width="9.745491"
       height="9.745491"
       x="79.843819"
       y="197.28195" />
    <rect
       style="fill:none;stroke:#002cb4;stroke-width:0.25404;stroke-linecap:round;stroke-dasharray:none;stroke-opacity:1"
       id="rect3-7-8"
       width="9.745491"
       height="9.745491"
       x="89.843269"
       y="197.28241" />
    <rect
       style="fill:none;stroke:#002cb4;stroke-width:0.25404;stroke-linecap:round;stroke-dasharray:none;stroke-opacity:1"
       id="rect3-8-3"
       width="9.745491"
       height="9.745491"
       x="79.844978"
       y="207.28227" />
    <rect
       style="fill:none;stroke:#002cb4;stroke-width:0.25404;stroke-linecap:round;stroke-dasharray:none;stroke-opacity:1"
       id="rect3-7-8-8"
       width="9.745491"
       height="9.745491"
       x="89.844429"
       y="207.28273" />
    <rect
       style="fill:none;stroke:#002cb4;stroke-width:0.25404;stroke-linecap:round;stroke-dasharray:none;stroke-opacity:1"
       id="rect3-8-1"
       width="9.745491"
       height="9.745491"
       x="79.843315"
       y="217.28278" />
    <rect
       style="fill:none;stroke:#002cb4;stroke-width:0.25404;stroke-linecap:round;stroke-dasharray:none;stroke-opacity:1"
       id="rect3-7-8-5"
       width="9.745491"
       height="9.745491"
       x="89.842766"
       y="217.28323" />
    <rect
       style="fill:none;stroke:#002cb4;stroke-width:0.25404;stroke-linecap:round;stroke-dasharray:none;stroke-opacity:1"
       id="rect3-8-35"
       width="9.745491"
       height="9.745491"
       x="-217.02736"
       y="69.844536"
       transform="rotate(-90)" />
    <rect
       style="fill:none;stroke:#002cb4;stroke-width:0.25404;stroke-linecap:round;stroke-dasharray:none;stroke-opacity:1"
       id="rect3-7-8-4"
       width="9.745491"
       height="9.745491"
       x="-207.02791"
       y="69.844994"
       transform="rotate(-90)" />
    <text
       xml:space="preserve"
       style="font-size:13.4056px;font-family:Monospace;-inkscape-font-specification:Monospace;text-align:start;writing-mode:lr-tb;direction:ltr;text-anchor:start;fill:#000000;fill-opacity:1;stroke:none;stroke-width:0.2;stroke-linecap:round;stroke-dasharray:none;stroke-opacity:1"
       x="13.570561"
       y="194.46307"
       id="text3"><tspan
         sodipodi:role="line"
         id="tspan3"
         style="font-size:13.4056px;fill:#000000;fill-opacity:1;stroke:none;stroke-width:0.2;stroke-dasharray:none"
         x="13.570561"
         y="194.46307">$E$</tspan></text>
    <text
       xml:space="preserve"
       style="font-size:13.4056px;font-family:Monospace;-inkscape-font-specification:Monospace;text-align:start;writing-mode:lr-tb;direction:ltr;text-anchor:start;fill:#0004f2;fill-opacity:1;stroke:none;stroke-width:0.2;stroke-linecap:round;stroke-dasharray:none;stroke-opacity:1"
       x="43.581676"
       y="196.49773"
       id="text4"><tspan
         sodipodi:role="line"
         id="tspan4"
         style="font-size:13.4056px;fill:#0004f2;fill-opacity:1;stroke-width:0.2"
         x="43.581676"
         y="196.49773">$V_i$</tspan></text>
  </g>
</svg>
