<?xml version="1.0" encoding="UTF-8" standalone="no"?>
<!-- Created with Inkscape (http://www.inkscape.org/) -->

<svg
   width="140mm"
   height="50mm"
   viewBox="0 0 140 50"
   version="1.1"
   id="svg8"
   inkscape:version="1.4 (e7c3feb1, 2024-10-09)"
   sodipodi:docname="split-of-a-outer-measure.svg"
   xmlns:inkscape="http://www.inkscape.org/namespaces/inkscape"
   xmlns:sodipodi="http://sodipodi.sourceforge.net/DTD/sodipodi-0.dtd"
   xmlns="http://www.w3.org/2000/svg"
   xmlns:svg="http://www.w3.org/2000/svg"
   xmlns:rdf="http://www.w3.org/1999/02/22-rdf-syntax-ns#"
   xmlns:cc="http://creativecommons.org/ns#"
   xmlns:dc="http://purl.org/dc/elements/1.1/">
  <defs
     id="defs2">
    <clipPath
       clipPathUnits="userSpaceOnUse"
       id="clipPath3">
      <path
         style="fill:#000000;fill-opacity:1;stroke:none;stroke-width:0.561001;stroke-linecap:round"
         d="m 34.779513,192.02818 c 0.01868,0.73462 0.112938,3.47471 -0.500938,5.0094 -0.06534,0.16335 -0.07293,0.4321 -0.143126,0.5725 -0.570662,1.14132 -2.685722,2.72781 -3.935953,3.00564 -0.894111,0.19869 -1.811387,0.53056 -2.719387,0.64406 -0.729303,0.0912 -1.352396,0.22283 -2.075321,0.42938 -0.764653,0.21847 -1.833772,0.40252 -2.433134,1.00188 -0.372658,0.37266 0.22363,1.2926 0.644065,1.50282 0.39239,0.19619 0.935665,0.23913 1.359693,0.28625 1.002438,0.11138 2.150131,0.0394 3.148761,-0.0716 0.894927,-0.0994 1.828247,0.077 2.719388,-0.0716 0.247388,-0.0412 2.64958,-0.49918 2.790947,-0.35781 0.107344,0.10734 0.25047,0.17891 0.357814,0.28625 0.09986,0.0999 0.266115,-0.0403 0.357815,0.14313 0.07161,0.14322 -0.683014,0.67003 -0.858753,0.78719 -0.226428,0.15095 -0.594434,0.22017 -0.858756,0.28625 -0.103491,0.0259 -0.18211,0.11998 -0.28625,0.14312 -0.570732,0.12683 -1.145206,0.1718 -1.717505,0.28625 -0.89956,0.17992 -1.99304,-0.0629 -2.934076,0.0716 -0.07705,0.011 -1.865145,0.21017 -1.645943,0.42938 0.159296,0.15929 0.559757,0.21043 0.78719,0.28625 2.060112,0.6867 4.105482,0.42937 6.225963,0.42937 0.116893,0 1.607188,-0.0387 1.645944,0 0.238853,0.23885 -1.115533,1.02293 -1.216567,1.07344 -1.489353,0.74468 -3.124158,1.19264 -4.794708,1.3597 -1.23521,0.12352 -3.923758,-0.0244 -4.580018,1.28813 -0.254989,0.50997 -0.265304,1.16245 -0.357813,1.7175 -0.05502,0.33013 -0.157431,0.80154 -0.07156,1.14501 0.270956,1.08382 2.686712,0.49316 3.36345,0.35781 0.05779,-0.0116 0.767805,-0.12374 0.787191,-0.14312 0.03578,-0.0358 0.107345,-0.0358 0.143127,-0.0716 0.126344,-0.12634 -0.139486,-0.28746 0.28625,-0.42937 0.04734,-0.0158 0.867748,-0.0626 0.930317,0 0.108209,0.10821 0.792705,1.39825 0.858753,1.57438 0.404302,1.07814 0.625568,2.2321 0.787191,3.36345 0.0056,0.0391 -0.0035,0.85875 0,0.85875 0.09542,0 0,-0.19083 0,-0.28625 0,-0.0844 0.0572,-0.44374 0,-0.50094 -7.94e-4,-7.9e-4 -0.143126,-0.0877 -0.143126,-0.0716 0,0.36097 0.22683,0.71692 0.28625,1.07344 0.202829,1.21698 0.507283,2.42408 1.001879,3.57814 0.439856,1.02633 0.577106,2.59736 1.932196,2.79095 2.39581,0.34226 2.264455,-0.98996 3.005638,-2.71939 0.269613,-0.6291 0.01561,-0.70986 0.787188,-0.93031 2.817532,-0.80501 1.347721,2.72178 3.148764,2.36157 1.114089,-0.22282 0.03197,-0.0345 0.787191,-0.28625 0.419219,-0.13974 0.873964,-0.19215 1.288129,-0.35781 0.991751,-0.39671 1.707214,-1.20628 2.433135,-1.9322 0.464608,-0.46461 0.974868,-0.73317 1.288129,-1.3597 0.330806,-0.6616 0.396941,-1.44462 0.572503,-2.14688 0.135078,-0.54031 -0.200684,-1.27567 -0.28625,-1.78907 -0.102661,-0.61597 -0.07797,-1.52314 0,-2.14688 0.177723,-1.4218 0.806953,-2.40589 0.500938,-3.93595 -0.07779,-0.38897 -0.265644,-0.88911 -0.429376,-1.21657 -0.06454,-0.12908 -0.217586,-0.18615 -0.28625,-0.35782 -0.14165,-0.35412 -0.188611,-1.61986 -0.357815,-1.78906 -0.193458,-0.19346 -0.362019,-0.74087 -0.429376,-1.14501 -0.06229,-0.37376 -0.116136,-1.10278 0.07156,-1.43125 0.469254,-0.8212 1.347507,-1.49307 2.075322,-2.07533 0.197242,-0.15779 0.967693,-0.64087 0.787189,-1.00187 -0.8171,-1.63421 -2.36941,-1.29075 -3.864391,-1.78907 -0.674166,-0.22473 -1.281363,-0.57983 -1.932193,-0.85876 -0.327724,-0.14045 -0.94778,-0.33864 -1.073441,-0.71563 -0.304348,-0.91304 0.510489,-1.83462 1.001879,-2.50469 0.777176,-1.05979 1.74853,-1.93758 2.790946,-2.71939 0.474419,-0.35581 1.008976,-0.65116 1.431256,-1.07344 0.46324,-0.46324 1.250183,-0.831 0.286253,-1.21657 -1.127144,-0.45086 -2.132796,0 -3.291888,0 -0.241594,0 -2.010584,-0.0784 -1.717508,0.21469 0.195747,0.19575 0.328673,-0.60164 0.214688,-0.71563 -0.08827,-0.0883 -0.462775,-0.15982 -0.572503,-0.21469 -0.165938,-0.083 -0.257553,-0.32911 -0.357812,-0.42937 -0.07971,-0.0797 -0.323146,-0.16158 -0.429379,-0.21469 -0.536252,-0.26813 -0.374184,-0.35781 -1.073441,-0.35781 -0.894731,0 -2.218251,-0.50114 -2.934073,0.21468 -0.428085,0.42809 -0.855993,1.60879 -1.359693,1.86064 -0.727536,0.36376 -1.216568,-0.0588 -1.216568,1.00187 z"
         id="path3"
         transform="translate(29.664112,-6.3969006)"
         mask="none"
         inkscape:path-effect="#path-effect2" />
    </clipPath>
    <inkscape:path-effect
       effect="spiro"
       id="path-effect2"
       is_visible="true"
       lpeversion="1" />
    <mask
       maskUnits="userSpaceOnUse"
       id="mask-powermask-path-effect8">
      <path
         id="mask-powermask-path-effect8_box"
         style="fill:#ffffff;fill-opacity:1"
         d="m 118.50879,198.92729 h 28.66293 v 31.35941 h -28.66293 z" />
      <path
         style="fill:#000000;fill-opacity:1;stroke:none;stroke-width:0.561001;stroke-linecap:round"
         d="m 34.779513,192.02818 c 0.01868,0.73462 0.112938,3.47471 -0.500938,5.0094 -0.06534,0.16335 -0.07293,0.4321 -0.143126,0.5725 -0.570662,1.14132 -2.685722,2.72781 -3.935953,3.00564 -0.894111,0.19869 -1.811387,0.53056 -2.719387,0.64406 -0.729303,0.0912 -1.352396,0.22283 -2.075321,0.42938 -0.764653,0.21847 -1.833772,0.40252 -2.433134,1.00188 -0.372658,0.37266 0.22363,1.2926 0.644065,1.50282 0.39239,0.19619 0.935665,0.23913 1.359693,0.28625 1.002438,0.11138 2.150131,0.0394 3.148761,-0.0716 0.894927,-0.0994 1.828247,0.077 2.719388,-0.0716 0.247388,-0.0412 2.64958,-0.49918 2.790947,-0.35781 0.107344,0.10734 0.25047,0.17891 0.357814,0.28625 0.09986,0.0999 0.266115,-0.0403 0.357815,0.14313 0.07161,0.14322 -0.683014,0.67003 -0.858753,0.78719 -0.226428,0.15095 -0.594434,0.22017 -0.858756,0.28625 -0.103491,0.0259 -0.18211,0.11998 -0.28625,0.14312 -0.570732,0.12683 -1.145206,0.1718 -1.717505,0.28625 -0.89956,0.17992 -1.99304,-0.0629 -2.934076,0.0716 -0.07705,0.011 -1.865145,0.21017 -1.645943,0.42938 0.159296,0.15929 0.559757,0.21043 0.78719,0.28625 2.060112,0.6867 4.105482,0.42937 6.225963,0.42937 0.116893,0 1.607188,-0.0387 1.645944,0 0.238853,0.23885 -1.115533,1.02293 -1.216567,1.07344 -1.489353,0.74468 -3.124158,1.19264 -4.794708,1.3597 -1.23521,0.12352 -3.923758,-0.0244 -4.580018,1.28813 -0.254989,0.50997 -0.265304,1.16245 -0.357813,1.7175 -0.05502,0.33013 -0.157431,0.80154 -0.07156,1.14501 0.270956,1.08382 2.686712,0.49316 3.36345,0.35781 0.05779,-0.0116 0.767805,-0.12374 0.787191,-0.14312 0.03578,-0.0358 0.107345,-0.0358 0.143127,-0.0716 0.126344,-0.12634 -0.139486,-0.28746 0.28625,-0.42937 0.04734,-0.0158 0.867748,-0.0626 0.930317,0 0.108209,0.10821 0.792705,1.39825 0.858753,1.57438 0.404302,1.07814 0.625568,2.2321 0.787191,3.36345 0.0056,0.0391 -0.0035,0.85875 0,0.85875 0.09542,0 0,-0.19083 0,-0.28625 0,-0.0844 0.0572,-0.44374 0,-0.50094 -7.94e-4,-7.9e-4 -0.143126,-0.0877 -0.143126,-0.0716 0,0.36097 0.22683,0.71692 0.28625,1.07344 0.202829,1.21698 0.507283,2.42408 1.001879,3.57814 0.439856,1.02633 0.577106,2.59736 1.932196,2.79095 2.39581,0.34226 2.264455,-0.98996 3.005638,-2.71939 0.269613,-0.6291 0.01561,-0.70986 0.787188,-0.93031 2.817532,-0.80501 1.347721,2.72178 3.148764,2.36157 1.114089,-0.22282 0.03197,-0.0345 0.787191,-0.28625 0.419219,-0.13974 0.873964,-0.19215 1.288129,-0.35781 0.991751,-0.39671 1.707214,-1.20628 2.433135,-1.9322 0.464608,-0.46461 0.974868,-0.73317 1.288129,-1.3597 0.330806,-0.6616 0.396941,-1.44462 0.572503,-2.14688 0.135078,-0.54031 -0.200684,-1.27567 -0.28625,-1.78907 -0.102661,-0.61597 -0.07797,-1.52314 0,-2.14688 0.177723,-1.4218 0.806953,-2.40589 0.500938,-3.93595 -0.07779,-0.38897 -0.265644,-0.88911 -0.429376,-1.21657 -0.06454,-0.12908 -0.217586,-0.18615 -0.28625,-0.35782 -0.14165,-0.35412 -0.188611,-1.61986 -0.357815,-1.78906 -0.193458,-0.19346 -0.362019,-0.74087 -0.429376,-1.14501 -0.06229,-0.37376 -0.116136,-1.10278 0.07156,-1.43125 0.469254,-0.8212 1.347507,-1.49307 2.075322,-2.07533 0.197242,-0.15779 0.967693,-0.64087 0.787189,-1.00187 -0.8171,-1.63421 -2.36941,-1.29075 -3.864391,-1.78907 -0.674166,-0.22473 -1.281363,-0.57983 -1.932193,-0.85876 -0.327724,-0.14045 -0.94778,-0.33864 -1.073441,-0.71563 -0.304348,-0.91304 0.510489,-1.83462 1.001879,-2.50469 0.777176,-1.05979 1.74853,-1.93758 2.790946,-2.71939 0.474419,-0.35581 1.008976,-0.65116 1.431256,-1.07344 0.46324,-0.46324 1.250183,-0.831 0.286253,-1.21657 -1.127144,-0.45086 -2.132796,0 -3.291888,0 -0.241594,0 -2.010584,-0.0784 -1.717508,0.21469 0.195747,0.19575 0.328673,-0.60164 0.214688,-0.71563 -0.08827,-0.0883 -0.462775,-0.15982 -0.572503,-0.21469 -0.165938,-0.083 -0.257553,-0.32911 -0.357812,-0.42937 -0.07971,-0.0797 -0.323146,-0.16158 -0.429379,-0.21469 -0.536252,-0.26813 -0.374184,-0.35781 -1.073441,-0.35781 -0.894731,0 -2.218251,-0.50114 -2.934073,0.21468 -0.428085,0.42809 -0.855993,1.60879 -1.359693,1.86064 -0.727536,0.36376 -1.216568,-0.0588 -1.216568,1.00187 z"
         id="path8"
         transform="translate(105.5891,7.1581613)"
         inkscape:path-effect="#path-effect2-1" />
    </mask>
    <inkscape:path-effect
       effect="spiro"
       id="path-effect2-1"
       is_visible="true"
       lpeversion="1" />
    <inkscape:path-effect
       effect="powermask"
       id="path-effect8"
       is_visible="true"
       lpeversion="1"
       uri="#mask-powermask-path-effect8"
       invert="false"
       hide_mask="false"
       background="true"
       background_color="#ffffffff" />
    <filter
       id="mask-powermask-path-effect8_inverse"
       inkscape:label="filtermask-powermask-path-effect8"
       style="color-interpolation-filters:sRGB"
       height="100"
       width="100"
       x="-50"
       y="-50">
      <feColorMatrix
         id="mask-powermask-path-effect8_primitive1"
         values="1"
         type="saturate"
         result="fbSourceGraphic" />
      <feColorMatrix
         id="mask-powermask-path-effect8_primitive2"
         values="-1 0 0 0 1 0 -1 0 0 1 0 0 -1 0 1 0 0 0 1 0 "
         in="fbSourceGraphic" />
    </filter>
  </defs>
  <sodipodi:namedview
     id="base"
     pagecolor="#ffffff"
     bordercolor="#666666"
     borderopacity="1.0"
     inkscape:pageopacity="0.0"
     inkscape:pageshadow="2"
     inkscape:zoom="0.95880115"
     inkscape:cx="340.52942"
     inkscape:cy="299.85362"
     inkscape:document-units="mm"
     inkscape:current-layer="layer1"
     showgrid="false"
     showborder="true"
     width="200mm"
     showguides="true"
     inkscape:guide-bbox="true"
     inkscape:window-width="1800"
     inkscape:window-height="1096"
     inkscape:window-x="3"
     inkscape:window-y="44"
     inkscape:window-maximized="0"
     inkscape:showpageshadow="2"
     inkscape:pagecheckerboard="0"
     inkscape:deskcolor="#d1d1d1">
    <inkscape:grid
       type="xygrid"
       id="grid815"
       units="mm"
       spacingx="10"
       spacingy="10"
       empspacing="4"
       dotted="false"
       originx="0"
       originy="0" />
  </sodipodi:namedview>
  <metadata
     id="metadata5">
    <rdf:RDF>
      <cc:Work
         rdf:about="">
        <dc:format>image/svg+xml</dc:format>
        <dc:type
           rdf:resource="http://purl.org/dc/dcmitype/StillImage" />
      </cc:Work>
    </rdf:RDF>
  </metadata>
  <g
     inkscape:label="Layer 1"
     inkscape:groupmode="layer"
     id="layer1"
     transform="translate(0,-177)">
    <ellipse
       style="fill:#de0000;fill-opacity:1;stroke:#ed0000;stroke-width:0.49294;stroke-linecap:round;stroke-opacity:1"
       id="path2"
       cx="56.91526"
       cy="201.05193"
       rx="13.084994"
       ry="14.433235"
       clip-path="url(#clipPath3)"
       transform="translate(30.537861,0.76993516)" />
    <text
       xml:space="preserve"
       style="font-size:7.7611px;font-family:Monospace;-inkscape-font-specification:Monospace;text-align:start;writing-mode:lr-tb;direction:ltr;text-anchor:start;fill:none;stroke:#ed0000;stroke-width:0.561001;stroke-linecap:round;stroke-opacity:1"
       x="91.852066"
       y="184.08597"
       id="text2"><tspan
         sodipodi:role="line"
         id="tspan2"
         style="stroke-width:0.561"
         x="91.852066"
         y="184.08597">$A \cap E$</tspan></text>
    <text
       xml:space="preserve"
       style="font-size:7.7611px;font-family:Monospace;-inkscape-font-specification:Monospace;text-align:start;writing-mode:lr-tb;direction:ltr;text-anchor:start;fill:none;stroke:#ed0000;stroke-width:0.561001;stroke-linecap:round;stroke-opacity:1"
       x="48.593662"
       y="184.72461"
       id="text2-7"><tspan
         sodipodi:role="line"
         id="tspan2-3"
         style="stroke-width:0.561"
         x="48.593662"
         y="184.72461">$A \cap E^c$</tspan></text>
    <path
       style="fill:#de0000;fill-opacity:1;stroke:#ed0000;stroke-width:0.49294;stroke-linecap:round;stroke-opacity:1"
       id="path2-88"
       mask="url(#mask-powermask-path-effect8)"
       inkscape:path-effect="#path-effect8"
       sodipodi:type="arc"
       sodipodi:cx="132.84026"
       sodipodi:cy="214.60699"
       sodipodi:rx="13.084994"
       sodipodi:ry="14.433235"
       d="m 145.92525,214.60699 a 13.084994,14.433235 0 0 1 -13.08499,14.43324 13.084994,14.433235 0 0 1 -13.085,-14.43324 13.084994,14.433235 0 0 1 13.085,-14.43323 13.084994,14.433235 0 0 1 13.08499,14.43323 z"
       transform="translate(-76.596247,-13.70909)" />
    <rect
       style="fill:none;stroke:#002cb4;stroke-width:0.25404;stroke-linecap:round;stroke-dasharray:none;stroke-opacity:1"
       id="rect3-3"
       width="9.745491"
       height="9.745491"
       x="42.691677"
       y="185.90721" />
    <rect
       style="fill:none;stroke:#002cb4;stroke-width:0.25404;stroke-linecap:round;stroke-dasharray:none;stroke-opacity:1"
       id="rect3-7-9"
       width="9.745491"
       height="9.745491"
       x="52.691128"
       y="185.90767" />
    <rect
       style="fill:none;stroke:#002cb4;stroke-width:0.25404;stroke-linecap:round;stroke-dasharray:none;stroke-opacity:1"
       id="rect3-8-9"
       width="9.745491"
       height="9.745491"
       x="42.691868"
       y="195.90625" />
    <rect
       style="fill:none;stroke:#002cb4;stroke-width:0.25404;stroke-linecap:round;stroke-dasharray:none;stroke-opacity:1"
       id="rect3-7-8-7"
       width="9.745491"
       height="9.745491"
       x="52.691311"
       y="195.90671" />
    <rect
       style="fill:none;stroke:#002cb4;stroke-width:0.25404;stroke-linecap:round;stroke-dasharray:none;stroke-opacity:1"
       id="rect3-8-3-0"
       width="9.745491"
       height="9.745491"
       x="42.693027"
       y="205.90656" />
    <rect
       style="fill:none;stroke:#002cb4;stroke-width:0.25404;stroke-linecap:round;stroke-dasharray:none;stroke-opacity:1"
       id="rect3-7-8-8-3"
       width="9.745491"
       height="9.745491"
       x="52.692471"
       y="205.90701" />
    <rect
       style="fill:none;stroke:#002cb4;stroke-width:0.25404;stroke-linecap:round;stroke-dasharray:none;stroke-opacity:1"
       id="rect3-7-9-7"
       width="9.745491"
       height="9.745491"
       x="62.690166"
       y="185.90596" />
    <rect
       style="fill:none;stroke:#002cb4;stroke-width:0.25404;stroke-linecap:round;stroke-dasharray:none;stroke-opacity:1"
       id="rect3-7-8-7-8"
       width="9.745491"
       height="9.745491"
       x="62.69035"
       y="195.905" />
    <rect
       style="fill:none;stroke:#002cb4;stroke-width:0.25404;stroke-linecap:round;stroke-dasharray:none;stroke-opacity:1"
       id="rect3-7-8-8-3-8"
       width="9.745491"
       height="9.745491"
       x="62.691509"
       y="205.9053" />
    <rect
       style="fill:none;stroke:#002cb4;stroke-width:0.25404;stroke-linecap:round;stroke-dasharray:none;stroke-opacity:1"
       id="rect3-3-4"
       width="9.745491"
       height="9.745491"
       x="81.220879"
       y="186.21959" />
    <rect
       style="fill:none;stroke:#002cb4;stroke-width:0.25404;stroke-linecap:round;stroke-dasharray:none;stroke-opacity:1"
       id="rect3-7-9-8"
       width="9.745491"
       height="9.745491"
       x="91.220329"
       y="186.22005" />
    <rect
       style="fill:none;stroke:#002cb4;stroke-width:0.25404;stroke-linecap:round;stroke-dasharray:none;stroke-opacity:1"
       id="rect3-8-9-3"
       width="9.745491"
       height="9.745491"
       x="81.221069"
       y="196.21863" />
    <rect
       style="fill:none;stroke:#002cb4;stroke-width:0.25404;stroke-linecap:round;stroke-dasharray:none;stroke-opacity:1"
       id="rect3-7-8-7-9"
       width="9.745491"
       height="9.745491"
       x="91.220512"
       y="196.21909" />
    <rect
       style="fill:none;stroke:#002cb4;stroke-width:0.25404;stroke-linecap:round;stroke-dasharray:none;stroke-opacity:1"
       id="rect3-8-3-0-0"
       width="9.745491"
       height="9.745491"
       x="81.222229"
       y="206.21893" />
    <rect
       style="fill:none;stroke:#002cb4;stroke-width:0.25404;stroke-linecap:round;stroke-dasharray:none;stroke-opacity:1"
       id="rect3-7-8-8-3-5"
       width="9.745491"
       height="9.745491"
       x="91.221672"
       y="206.21939" />
  </g>
</svg>
