<?xml version="1.0" encoding="UTF-8" standalone="no"?>
<!-- Created with Inkscape (http://www.inkscape.org/) -->

<svg
   width="150.285mm"
   height="40.194mm"
   viewBox="0 0 150.285 40.194"
   version="1.1"
   id="svg8"
   inkscape:version="1.4 (e7c3feb1, 2024-10-09)"
   sodipodi:docname="a-and-unpretty-e.svg"
   xmlns:inkscape="http://www.inkscape.org/namespaces/inkscape"
   xmlns:sodipodi="http://sodipodi.sourceforge.net/DTD/sodipodi-0.dtd"
   xmlns="http://www.w3.org/2000/svg"
   xmlns:svg="http://www.w3.org/2000/svg"
   xmlns:rdf="http://www.w3.org/1999/02/22-rdf-syntax-ns#"
   xmlns:cc="http://creativecommons.org/ns#"
   xmlns:dc="http://purl.org/dc/elements/1.1/">
  <defs
     id="defs2">
    <inkscape:path-effect
       effect="spiro"
       id="path-effect2"
       is_visible="true"
       lpeversion="1" />
  </defs>
  <sodipodi:namedview
     id="base"
     pagecolor="#ffffff"
     bordercolor="#666666"
     borderopacity="1.0"
     inkscape:pageopacity="0.0"
     inkscape:pageshadow="2"
     inkscape:zoom="1.0770478"
     inkscape:cx="241.86485"
     inkscape:cy="140.66229"
     inkscape:document-units="mm"
     inkscape:current-layer="layer1"
     showgrid="false"
     showborder="true"
     width="200mm"
     showguides="true"
     inkscape:guide-bbox="true"
     inkscape:window-width="1800"
     inkscape:window-height="1096"
     inkscape:window-x="3"
     inkscape:window-y="44"
     inkscape:window-maximized="0"
     inkscape:showpageshadow="2"
     inkscape:pagecheckerboard="0"
     inkscape:deskcolor="#d1d1d1">
    <inkscape:grid
       type="xygrid"
       id="grid815"
       units="mm"
       spacingx="10"
       spacingy="10"
       empspacing="4"
       dotted="false"
       originx="-17.837214"
       originy="-10.785867" />
  </sodipodi:namedview>
  <metadata
     id="metadata5">
    <rdf:RDF>
      <cc:Work
         rdf:about="">
        <dc:format>image/svg+xml</dc:format>
        <dc:type
           rdf:resource="http://purl.org/dc/dcmitype/StillImage" />
      </cc:Work>
    </rdf:RDF>
  </metadata>
  <g
     inkscape:label="Layer 1"
     inkscape:groupmode="layer"
     id="layer1"
     transform="translate(-17.837212,-187.78587)">
    <path
       style="fill:#000000;fill-opacity:1;stroke:none;stroke-width:0.561001;stroke-linecap:round"
       d="m 34.779513,192.02818 c -0.01528,1.68073 -0.16008,3.36352 -0.500938,5.0094 -0.03991,0.19272 -0.08259,0.38523 -0.143126,0.5725 -0.26476,0.81905 -0.864619,1.50154 -1.575894,1.98634 -0.711275,0.48479 -1.531159,0.78721 -2.360059,1.0193 -0.897133,0.25119 -1.813822,0.42521 -2.719387,0.64406 -0.68728,0.1661 -1.371796,0.35871 -2.075321,0.42938 -0.463074,0.0465 -0.93538,0.0405 -1.384553,0.1623 -0.224586,0.0609 -0.44235,0.15449 -0.628542,0.29407 -0.186192,0.13958 -0.33986,0.32706 -0.420039,0.54551 -0.102118,0.27823 -0.07842,0.59603 0.04489,0.86553 0.123312,0.26951 0.341523,0.49081 0.599173,0.63729 0.406953,0.23136 0.891677,0.27638 1.359693,0.28625 1.049894,0.0222 2.099221,-0.10673 3.148761,-0.0716 0.910906,0.0305 1.843971,0.18202 2.719388,-0.0716 0.47334,-0.13713 0.9076,-0.38786 1.380673,-0.52591 0.236536,-0.069 0.48398,-0.10941 0.729605,-0.0899 0.245624,0.0196 0.489969,0.10191 0.680669,0.25795 0.118714,0.0971 0.218117,0.2229 0.357814,0.28625 0.05888,0.0267 0.122446,0.041 0.184404,0.0595 0.06196,0.0185 0.124011,0.042 0.173411,0.0837 0.04765,0.0402 0.08123,0.0962 0.09697,0.15653 0.01575,0.0603 0.01397,0.12477 -0.0024,0.18494 -0.03273,0.12034 -0.12222,0.2199 -0.228924,0.28445 -0.106705,0.0645 -0.229799,0.0972 -0.352974,0.1167 -0.123176,0.0195 -0.24801,0.0266 -0.371426,0.0446 -0.299899,0.0435 -0.587903,0.15033 -0.858756,0.28625 -0.09536,0.0479 -0.188929,0.0994 -0.28625,0.14312 -0.532245,0.23911 -1.136721,0.23013 -1.717505,0.28625 -0.491373,0.0475 -0.977036,0.14428 -1.468593,0.18981 -0.491557,0.0455 -0.997182,0.038 -1.465483,-0.11821 -0.176888,-0.059 -0.346256,-0.13847 -0.521535,-0.20209 -0.175279,-0.0636 -0.359678,-0.11168 -0.545989,-0.10403 -0.09315,0.004 -0.186116,0.0218 -0.272299,0.0573 -0.08618,0.0356 -0.165476,0.089 -0.227312,0.15882 -0.06184,0.0698 -0.105773,0.15609 -0.121272,0.24802 -0.0155,0.0919 -0.0018,0.18928 0.04246,0.27132 0.03485,0.0646 0.0877,0.11857 0.148708,0.15934 0.06101,0.0408 0.130029,0.0686 0.201076,0.087 0.142096,0.0367 0.290723,0.0356 0.437406,0.0399 1.055375,0.0315 2.076712,0.3554 3.111931,0.56307 0.51761,0.10383 1.043425,0.17904 1.571316,0.17335 0.527891,-0.006 1.059558,-0.0943 1.542716,-0.30705 0.282966,-0.1246 0.553274,-0.29259 0.858278,-0.34325 0.152502,-0.0253 0.312628,-0.0194 0.456843,0.0362 0.144215,0.0557 0.271009,0.16446 0.330823,0.30701 0.06048,0.14414 0.04819,0.31318 -0.01656,0.45544 -0.06476,0.14226 -0.178414,0.2588 -0.309739,0.34357 -0.262649,0.16955 -0.583544,0.21398 -0.890263,0.27443 -1.633403,0.32193 -3.137368,1.202 -4.794708,1.3597 -0.831367,0.0791 -1.673731,-0.0276 -2.502632,0.0742 -0.414451,0.0509 -0.826442,0.1554 -1.194733,0.35217 -0.368291,0.19678 -0.691717,0.49046 -0.882653,0.86181 -0.134394,0.26138 -0.200089,0.55264 -0.242734,0.84343 -0.04265,0.2908 -0.06357,0.58471 -0.115079,0.87407 -0.03389,0.19038 -0.08099,0.37853 -0.105114,0.57039 -0.02413,0.19186 -0.02454,0.39018 0.03355,0.57462 0.04697,0.14912 0.131544,0.2855 0.239917,0.39818 0.108373,0.11269 0.240178,0.20192 0.382619,0.26636 0.284882,0.12887 0.607268,0.15743 0.918592,0.12837 0.622648,-0.0581 1.204989,-0.33525 1.822322,-0.4351 0.263776,-0.0427 0.535509,-0.0534 0.787191,-0.14312 0.05044,-0.018 0.100342,-0.0394 0.143127,-0.0716 0.0692,-0.0521 0.115223,-0.12882 0.155013,-0.20576 0.03979,-0.077 0.07574,-0.1571 0.131237,-0.22361 0.05487,-0.0658 0.127618,-0.11593 0.207427,-0.14702 0.07981,-0.0311 0.166503,-0.0434 0.252047,-0.0391 0.171087,0.009 0.334189,0.0828 0.470843,0.18607 0.241689,0.1827 0.404797,0.45111 0.526868,0.7284 0.122071,0.2773 0.208772,0.56915 0.331885,0.84598 0.249741,0.56157 0.644195,1.0503 0.885076,1.61572 0.120441,0.28271 0.201613,0.58634 0.19775,0.89362 -0.0039,0.30727 -0.09778,0.61898 -0.295635,0.85411 -0.0817,0.0971 -0.179254,0.1796 -0.264703,0.2734 -0.08545,0.0938 -0.160451,0.20319 -0.182834,0.32809 -0.01119,0.0625 -0.0086,0.12788 0.01188,0.18793 0.02048,0.06 0.05941,0.11438 0.112272,0.14946 0.05287,0.0351 0.119789,0.0498 0.181695,0.0359 0.03095,-0.007 0.06039,-0.0208 0.08505,-0.0408 0.02466,-0.02 0.04448,-0.046 0.05664,-0.0753 0.01848,-0.0445 0.01883,-0.0944 0.01416,-0.14243 -0.0047,-0.048 -0.0141,-0.0956 -0.01416,-0.14382 -1.11e-4,-0.0863 0.02959,-0.16945 0.0443,-0.25446 0.0074,-0.0425 0.01095,-0.086 0.0051,-0.12878 -0.0058,-0.0427 -0.02152,-0.0848 -0.04943,-0.1177 -0.03538,-0.0417 -0.08873,-0.0661 -0.143126,-0.0716 -0.06322,-0.006 -0.128115,0.0116 -0.180787,0.0471 -0.05267,0.0356 -0.09317,0.088 -0.117239,0.14685 -0.02407,0.0588 -0.032,0.12374 -0.02607,0.18701 0.0059,0.0633 0.02549,0.12492 0.05419,0.18162 0.0574,0.1134 0.149809,0.20546 0.249257,0.28461 0.09945,0.0791 0.207217,0.14735 0.306897,0.22621 0.250903,0.19849 0.446221,0.46209 0.586204,0.74977 0.139983,0.28767 0.226154,0.59932 0.279346,0.91479 0.106385,0.63094 0.08281,1.27597 0.136329,1.91358 0.05121,0.61006 0.178301,1.22703 0.491259,1.75321 0.156478,0.26308 0.35884,0.5006 0.603988,0.68391 0.245149,0.18331 0.533813,0.3113 0.836949,0.35383 0.360221,0.0505 0.73233,-0.021 1.061779,-0.17523 0.32945,-0.1542 0.617671,-0.38841 0.859575,-0.66006 0.48381,-0.54331 0.780036,-1.22328 1.084284,-1.8841 0.08741,-0.18986 0.176983,-0.3806 0.301644,-0.54837 0.124661,-0.16777 0.288232,-0.31298 0.485544,-0.38194 0.166926,-0.0583 0.351402,-0.0591 0.522644,-0.015 0.171241,0.0441 0.329583,0.13169 0.466962,0.24303 0.274758,0.22266 0.462528,0.53286 0.635028,0.84159 0.172501,0.30873 0.338651,0.6272 0.58393,0.88197 0.122639,0.12739 0.264773,0.23764 0.42498,0.31249 0.160208,0.0748 0.3391,0.11334 0.51522,0.0975 0.279449,-0.0251 0.527224,-0.18071 0.787191,-0.28625 0.413279,-0.16778 0.86696,-0.21095 1.288129,-0.35781 0.493512,-0.17208 0.928362,-0.48192 1.317906,-0.83038 0.389543,-0.34846 0.739968,-0.73803 1.115229,-1.10182 0.449258,-0.43553 0.939405,-0.84017 1.288129,-1.3597 0.419907,-0.62558 0.609384,-1.39434 0.572503,-2.14688 -0.02959,-0.60368 -0.198137,-1.19112 -0.28625,-1.78907 -0.104667,-0.71029 -0.0952,-1.43526 0,-2.14688 0.176032,-1.31577 0.643951,-2.61618 0.500938,-3.93595 -0.04691,-0.4329 -0.165526,-0.87018 -0.429376,-1.21657 -0.0926,-0.12157 -0.201873,-0.23041 -0.28625,-0.35782 -0.169504,-0.25596 -0.227358,-0.56921 -0.255067,-0.87496 -0.02771,-0.30574 -0.02945,-0.61598 -0.102748,-0.9141 -0.09742,-0.39624 -0.316773,-0.75281 -0.429376,-1.14501 -0.13424,-0.46756 -0.108866,-0.9795 0.07156,-1.43125 0.183987,-0.46067 0.518596,-0.84714 0.891936,-1.17376 0.37334,-0.32663 0.788691,-0.6011 1.183386,-0.90157 0.172695,-0.13147 0.342557,-0.26897 0.484729,-0.43296 0.142171,-0.164 0.25642,-0.35681 0.30246,-0.56891 0.04293,-0.19775 0.02465,-0.40701 -0.04266,-0.59785 -0.06731,-0.19083 -0.182626,-0.36334 -0.326339,-0.5058 -0.287424,-0.28492 -0.67971,-0.44469 -1.077422,-0.51965 -0.795424,-0.14992 -1.628616,0.0134 -2.417969,-0.16577 -0.689164,-0.15642 -1.291342,-0.5609 -1.932193,-0.85876 -0.197875,-0.092 -0.400808,-0.17434 -0.58958,-0.28379 -0.188772,-0.10945 -0.365119,-0.24877 -0.483861,-0.43184 -0.133208,-0.20537 -0.18641,-0.45715 -0.170565,-0.70142 0.01584,-0.24427 0.09795,-0.48131 0.21638,-0.69554 0.23686,-0.42847 0.609814,-0.76162 0.956064,-1.10773 0.920818,-0.92045 1.707647,-1.99718 2.790946,-2.71939 0.499068,-0.33272 1.067426,-0.59658 1.431256,-1.07344 0.130804,-0.17144 0.231102,-0.36733 0.283813,-0.57644 0.05271,-0.2091 0.05698,-0.4315 0.0024,-0.64013 -0.08533,-0.32643 -0.314575,-0.60775 -0.605215,-0.77911 -0.290639,-0.17137 -0.638304,-0.2361 -0.974384,-0.20629 -0.336079,0.0298 -0.660598,0.15105 -0.948497,0.32698 -0.287899,0.17593 -0.540471,0.40551 -0.763792,0.65842 -0.133405,0.15108 -0.257154,0.31108 -0.400586,0.45268 -0.143432,0.1416 -0.309668,0.26588 -0.50145,0.32787 -0.09589,0.031 -0.19743,0.0459 -0.297961,0.0389 -0.100531,-0.007 -0.2,-0.0363 -0.285832,-0.0891 -0.08583,-0.0528 -0.157584,-0.12948 -0.200323,-0.22074 -0.04274,-0.0913 -0.05558,-0.19704 -0.03136,-0.29486 0.03142,-0.12685 0.119888,-0.23042 0.183864,-0.34437 0.03199,-0.057 0.05838,-0.11815 0.06731,-0.18288 0.0089,-0.0647 -8.54e-4,-0.1336 -0.03648,-0.18838 -0.02849,-0.0438 -0.07194,-0.0764 -0.119343,-0.0984 -0.0474,-0.022 -0.09883,-0.0339 -0.150358,-0.0425 -0.103052,-0.0173 -0.211459,-0.023 -0.302802,-0.0738 -0.08213,-0.0456 -0.141456,-0.12296 -0.192883,-0.20159 -0.05143,-0.0786 -0.09819,-0.16166 -0.164929,-0.22778 -0.114809,-0.11374 -0.27551,-0.16527 -0.429379,-0.21469 -0.359105,-0.11533 -0.715357,-0.23935 -1.073441,-0.35781 -0.493533,-0.16327 -0.999212,-0.31745 -1.519018,-0.32336 -0.259902,-0.003 -0.521623,0.032 -0.766511,0.11907 -0.244888,0.0871 -0.472669,0.22759 -0.648544,0.41897 -0.26614,0.2896 -0.398385,0.67337 -0.570076,1.02724 -0.08584,0.17693 -0.183778,0.34973 -0.312572,0.49834 -0.128795,0.14862 -0.290513,0.27276 -0.477045,0.33506 -0.142673,0.0477 -0.294515,0.0585 -0.443256,0.0808 -0.148741,0.0224 -0.298225,0.0589 -0.426524,0.13743 -0.128298,0.0785 -0.230306,0.19924 -0.284948,0.33938 -0.05464,0.14014 -0.06047,0.2938 -0.06184,0.44421 0,4e-5 -10e-7,7e-5 -10e-7,1.1e-4 z"
       id="path1"
       inkscape:path-effect="#path-effect2"
       inkscape:original-d="m 34.779513,192.02818 c 0.01868,0.73462 0.112938,3.47471 -0.500938,5.0094 -0.06534,0.16335 -0.07293,0.4321 -0.143126,0.5725 -0.570662,1.14132 -2.685722,2.72781 -3.935953,3.00564 -0.894111,0.19869 -1.811387,0.53056 -2.719387,0.64406 -0.729303,0.0912 -1.352396,0.22283 -2.075321,0.42938 -0.764653,0.21847 -1.833772,0.40252 -2.433134,1.00188 -0.372658,0.37266 0.22363,1.2926 0.644065,1.50282 0.39239,0.19619 0.935665,0.23913 1.359693,0.28625 1.002438,0.11138 2.150131,0.0394 3.148761,-0.0716 0.894927,-0.0994 1.828247,0.077 2.719388,-0.0716 0.247388,-0.0412 2.64958,-0.49918 2.790947,-0.35781 0.107344,0.10734 0.25047,0.17891 0.357814,0.28625 0.09986,0.0999 0.266115,-0.0403 0.357815,0.14313 0.07161,0.14322 -0.683014,0.67003 -0.858753,0.78719 -0.226428,0.15095 -0.594434,0.22017 -0.858756,0.28625 -0.103491,0.0259 -0.18211,0.11998 -0.28625,0.14312 -0.570732,0.12683 -1.145206,0.1718 -1.717505,0.28625 -0.89956,0.17992 -1.99304,-0.0629 -2.934076,0.0716 -0.07705,0.011 -1.865145,0.21017 -1.645943,0.42938 0.159296,0.15929 0.559757,0.21043 0.78719,0.28625 2.060112,0.6867 4.105482,0.42937 6.225963,0.42937 0.116893,0 1.607188,-0.0387 1.645944,0 0.238853,0.23885 -1.115533,1.02293 -1.216567,1.07344 -1.489353,0.74468 -3.124158,1.19264 -4.794708,1.3597 -1.23521,0.12352 -3.923758,-0.0244 -4.580018,1.28813 -0.254989,0.50997 -0.265304,1.16245 -0.357813,1.7175 -0.05502,0.33013 -0.157431,0.80154 -0.07156,1.14501 0.270956,1.08382 2.686712,0.49316 3.36345,0.35781 0.05779,-0.0116 0.767805,-0.12374 0.787191,-0.14312 0.03578,-0.0358 0.107345,-0.0358 0.143127,-0.0716 0.126344,-0.12634 -0.139486,-0.28746 0.28625,-0.42937 0.04734,-0.0158 0.867748,-0.0626 0.930317,0 0.108209,0.10821 0.792705,1.39825 0.858753,1.57438 0.404302,1.07814 0.625568,2.2321 0.787191,3.36345 0.0056,0.0391 -0.0035,0.85875 0,0.85875 0.09542,0 0,-0.19083 0,-0.28625 0,-0.0844 0.0572,-0.44374 0,-0.50094 -7.94e-4,-7.9e-4 -0.143126,-0.0877 -0.143126,-0.0716 0,0.36097 0.22683,0.71692 0.28625,1.07344 0.202829,1.21698 0.507283,2.42408 1.001879,3.57814 0.439856,1.02633 0.577106,2.59736 1.932196,2.79095 2.39581,0.34226 2.264455,-0.98996 3.005638,-2.71939 0.269613,-0.6291 0.01561,-0.70986 0.787188,-0.93031 2.817532,-0.80501 1.347721,2.72178 3.148764,2.36157 1.114089,-0.22282 0.03197,-0.0345 0.787191,-0.28625 0.419219,-0.13974 0.873964,-0.19215 1.288129,-0.35781 0.991751,-0.39671 1.707214,-1.20628 2.433135,-1.9322 0.464608,-0.46461 0.974868,-0.73317 1.288129,-1.3597 0.330806,-0.6616 0.396941,-1.44462 0.572503,-2.14688 0.135078,-0.54031 -0.200684,-1.27567 -0.28625,-1.78907 -0.102661,-0.61597 -0.07797,-1.52314 0,-2.14688 0.177723,-1.4218 0.806953,-2.40589 0.500938,-3.93595 -0.07779,-0.38897 -0.265644,-0.88911 -0.429376,-1.21657 -0.06454,-0.12908 -0.217586,-0.18615 -0.28625,-0.35782 -0.14165,-0.35412 -0.188611,-1.61986 -0.357815,-1.78906 -0.193458,-0.19346 -0.362019,-0.74087 -0.429376,-1.14501 -0.06229,-0.37376 -0.116136,-1.10278 0.07156,-1.43125 0.469254,-0.8212 1.347507,-1.49307 2.075322,-2.07533 0.197242,-0.15779 0.967693,-0.64087 0.787189,-1.00187 -0.8171,-1.63421 -2.36941,-1.29075 -3.864391,-1.78907 -0.674166,-0.22473 -1.281363,-0.57983 -1.932193,-0.85876 -0.327724,-0.14045 -0.94778,-0.33864 -1.073441,-0.71563 -0.304348,-0.91304 0.510489,-1.83462 1.001879,-2.50469 0.777176,-1.05979 1.74853,-1.93758 2.790946,-2.71939 0.474419,-0.35581 1.008976,-0.65116 1.431256,-1.07344 0.46324,-0.46324 1.250183,-0.831 0.286253,-1.21657 -1.127144,-0.45086 -2.132796,0 -3.291888,0 -0.241594,0 -2.010584,-0.0784 -1.717508,0.21469 0.195747,0.19575 0.328673,-0.60164 0.214688,-0.71563 -0.08827,-0.0883 -0.462775,-0.15982 -0.572503,-0.21469 -0.165938,-0.083 -0.257553,-0.32911 -0.357812,-0.42937 -0.07971,-0.0797 -0.323146,-0.16158 -0.429379,-0.21469 -0.536252,-0.26813 -0.374184,-0.35781 -1.073441,-0.35781 -0.894731,0 -2.218251,-0.50114 -2.934073,0.21468 -0.428085,0.42809 -0.855993,1.60879 -1.359693,1.86064 -0.727536,0.36376 -1.216568,-0.0588 -1.216568,1.00187 z"
       transform="translate(60.148095,-0.85472782)" />
    <ellipse
       style="fill:none;stroke:#ed0000;stroke-width:0.49294;stroke-linecap:round;stroke-opacity:1"
       id="path2"
       cx="87.399246"
       cy="206.5941"
       rx="13.084994"
       ry="14.433235" />
    <text
       xml:space="preserve"
       style="font-size:7.7611px;font-family:Monospace;-inkscape-font-specification:Monospace;text-align:start;writing-mode:lr-tb;direction:ltr;text-anchor:start;fill:none;stroke:#ed0000;stroke-width:0.561001;stroke-linecap:round;stroke-opacity:1"
       x="71.975372"
       y="196.83286"
       id="text2"><tspan
         sodipodi:role="line"
         id="tspan2"
         style="stroke-width:0.561"
         x="71.975372"
         y="196.83286">$A$</tspan></text>
    <text
       xml:space="preserve"
       style="font-size:7.7611px;font-family:Monospace;-inkscape-font-specification:Monospace;text-align:start;writing-mode:lr-tb;direction:ltr;text-anchor:start;fill:none;stroke:#000000;stroke-width:0.561001;stroke-linecap:round;stroke-opacity:1"
       x="109.37164"
       y="196.12178"
       id="text2-0"><tspan
         sodipodi:role="line"
         id="tspan2-3"
         style="stroke:#000000;stroke-width:0.561;stroke-opacity:1"
         x="109.37164"
         y="196.12178">$E$</tspan></text>
  </g>
</svg>
